<mxfile host="app.diagrams.net" modified="2023-10-19T09:13:58.607Z" agent="Mozilla/5.0 (Windows NT 10.0; Win64; x64) AppleWebKit/537.36 (KHTML, like Gecko) Chrome/118.0.0.0 Safari/537.36" etag="MGtSiVK3vfyYR69nMEnB" version="22.0.5" type="device">
  <diagram name="Pagina-1" id="iqH-jSD8k4hSVCIKKG_X">
    <mxGraphModel dx="1034" dy="434" grid="1" gridSize="10" guides="1" tooltips="1" connect="1" arrows="1" fold="1" page="1" pageScale="1" pageWidth="827" pageHeight="1169" math="0" shadow="0">
      <root>
        <mxCell id="0" />
        <mxCell id="1" parent="0" />
        <mxCell id="rhPHLrmrAT9WHnBHylJ9-1" value="main" style="whiteSpace=wrap;html=1;aspect=fixed;" vertex="1" parent="1">
          <mxGeometry x="240" y="60" width="430" height="430" as="geometry" />
        </mxCell>
        <mxCell id="rhPHLrmrAT9WHnBHylJ9-3" value="header" style="rounded=0;whiteSpace=wrap;html=1;" vertex="1" parent="1">
          <mxGeometry x="240" y="60" width="430" height="90" as="geometry" />
        </mxCell>
        <mxCell id="rhPHLrmrAT9WHnBHylJ9-4" value="footer" style="rounded=0;whiteSpace=wrap;html=1;" vertex="1" parent="1">
          <mxGeometry x="240" y="430" width="430" height="60" as="geometry" />
        </mxCell>
        <mxCell id="rhPHLrmrAT9WHnBHylJ9-5" value="" style="rounded=0;whiteSpace=wrap;html=1;" vertex="1" parent="1">
          <mxGeometry x="240" y="120" width="430" height="30" as="geometry" />
        </mxCell>
        <mxCell id="rhPHLrmrAT9WHnBHylJ9-6" value="about" style="rounded=0;whiteSpace=wrap;html=1;" vertex="1" parent="1">
          <mxGeometry x="240" y="430" width="120" height="60" as="geometry" />
        </mxCell>
        <mxCell id="rhPHLrmrAT9WHnBHylJ9-7" value="credits" style="rounded=0;whiteSpace=wrap;html=1;" vertex="1" parent="1">
          <mxGeometry x="550" y="430" width="120" height="60" as="geometry" />
        </mxCell>
        <mxCell id="rhPHLrmrAT9WHnBHylJ9-8" value="page options" style="rounded=0;whiteSpace=wrap;html=1;" vertex="1" parent="1">
          <mxGeometry x="240" y="150" width="50" height="280" as="geometry" />
        </mxCell>
        <mxCell id="rhPHLrmrAT9WHnBHylJ9-9" value="page options" style="rounded=0;whiteSpace=wrap;html=1;" vertex="1" parent="1">
          <mxGeometry x="610" y="150" width="60" height="280" as="geometry" />
        </mxCell>
        <mxCell id="rhPHLrmrAT9WHnBHylJ9-10" value="login/register/logout button" style="rounded=0;whiteSpace=wrap;html=1;" vertex="1" parent="1">
          <mxGeometry x="395" y="120" width="120" height="30" as="geometry" />
        </mxCell>
        <mxCell id="rhPHLrmrAT9WHnBHylJ9-11" value="navigation" style="rounded=0;whiteSpace=wrap;html=1;" vertex="1" parent="1">
          <mxGeometry x="240" y="120" width="155" height="30" as="geometry" />
        </mxCell>
        <mxCell id="rhPHLrmrAT9WHnBHylJ9-12" value="navigation" style="rounded=0;whiteSpace=wrap;html=1;" vertex="1" parent="1">
          <mxGeometry x="515" y="120" width="155" height="30" as="geometry" />
        </mxCell>
      </root>
    </mxGraphModel>
  </diagram>
</mxfile>
